<svg xmlns="http://www.w3.org/2000/svg" width="34" height="34" viewBox="32 0 200 265" fill="none"><path fill-rule="evenodd" clip-rule="evenodd" d="M8.5 4.1C3.8 6.8 4 1.9 4 122.1v113.8l2.3 2.4c1.7 1.9 7.9 4.2 27.2 10.1l25.1 7.6h98.2c84.3 0 98.7-.2 101.1-1.5 3.1-1.5 4.1-3.3 4.1-6.9 0-1.2-8.8-20.6-19.5-42.9L223 164l7.5-7.2c17.9-16.9 26.7-38.5 25.1-61.3-.8-12.4-2.9-20.5-8.1-31.1-7.2-15-21.9-28.8-37.9-35.9-3.1-1.4-15.9-5.4-28.4-9s-25.6-7.7-29.1-9.1-10-3.4-14.5-4.6c-7.7-2.1-10.7-2.2-67.6-2.5-43-.2-60.1 0-61.5.8M190 30c4.7 1.1 13.2 4.3 18.9 7.1 17.6 8.6 30.5 23.3 36.1 41.4 3.1 9.7 3.8 27.5 1.6 37q-6 25.2-30.9 44.1l-2.5 1.9 13.7 28.5c24.7 51.3 23.4 48.3 21.7 52.3-.8 2-2.4 4-3.5 4.7-3.1 1.6-85.4.2-89.7-1.5-2.2-.9-3.5-2.3-4.2-4.7-.7-2.1-1.2-27.3-1.4-68.2l-.4-64.9-2.3-1.8c-3.3-2.7-8.6-2.4-11.6.6l-2.5 2.4v34.3c0 18.9-.3 48.9-.7 66.8l-.6 32.5-2.8 2.7-2.7 2.8H99.3c-19.6 0-27.5-.4-29.3-1.3-5.1-2.6-5.1-1.2-4.8-111.3l.3-102.2 2.4-2.6 2.4-2.6h55.6c52.3 0 56.1.1 64.1 2" fill="currentColor"/></svg>